<?xml version="1.0" standalone="no"?>
<!DOCTYPE svg PUBLIC "-//W3C//DTD SVG 20010904//EN"
 "http://www.w3.org/TR/2001/REC-SVG-20010904/DTD/svg10.dtd">
<svg version="1.0" xmlns="http://www.w3.org/2000/svg"
 width="640.000000pt" height="510.000000pt" viewBox="0 0 640.000000 510.000000"
 preserveAspectRatio="xMidYMid meet">
<metadata>
Created by potrace 1.16, written by Peter Selinger 2001-2019
</metadata>
<g transform="translate(0.000000,510.000000) scale(0.100000,-0.100000)"
fill="#000000" stroke="none">
<path d="M1605 2765 c-52 -51 -18 -135 54 -135 70 0 109 93 59 140 -31 28 -83
26 -113 -5z"/>
<path d="M1601 2324 l-31 -26 0 -138 c0 -124 2 -140 21 -164 29 -37 89 -37
118 0 19 24 21 40 21 166 0 134 -1 140 -25 163 -31 32 -66 32 -104 -1z"/>
<path d="M5459 1830 c-8 -5 -82 -8 -165 -8 -280 1 -697 -4 -710 -9 -8 -3 -14
-12 -14 -20 0 -10 6 -13 16 -9 9 3 208 6 442 6 423 0 427 0 440 21 16 25 13
31 -9 19z"/>
<path d="M2091 1771 l-34 -18 93 -6 c51 -4 118 -8 149 -8 l56 -1 -55 -8 c-151
-22 -735 -30 -803 -12 -47 13 -49 -3 -2 -18 42 -14 44 -23 8 -37 -22 -8 24
-11 197 -12 233 -1 333 5 324 20 -3 5 2 9 10 9 9 0 16 4 16 10 0 5 15 11 33
14 44 7 989 16 1774 16 576 0 652 2 647 15 -4 9 0 15 7 15 9 0 7 5 -5 12 -13
7 -307 9 -1025 5 -891 -4 -1268 1 -1335 17 -12 2 -36 -3 -55 -13z"/>
</g>
</svg>
